<?xml version="1.0" encoding="iso-8859-1"?>
<!-- Uploaded to: SVG Repo, www.svgrepo.com, Generator: SVG Repo Mixer Tools -->
<svg fill="#000000" height="800px" width="800px" version="1.1" id="Layer_1" xmlns="http://www.w3.org/2000/svg" xmlns:xlink="http://www.w3.org/1999/xlink" 
	 viewBox="0 0 322 322" xml:space="preserve">
<g transform="translate(0 -562.36)">
	<g>
		<g>
			<path d="M308,611.36H14c-7.8,0-14,6.2-14,14v147.3c0,7.3,6.2,13.4,14,14h49.3v-28H28v-119.3h266v119.3h-34.7v28H308
				c7.8-0.6,14-6.7,14-14v-147.3C322,617.56,315.8,611.36,308,611.36z"/>
			<path d="M173.6,717.16c-5-10.6-20.2-10.6-25.2,0l-48.7,98c-1.2,2.3-1.7,4.5-1.7,6.8c0.6,7.3,6.7,13.4,14,13.4h98
				c10.6,0,17.4-11.2,12.3-20.2L173.6,717.16z M134.4,807.36l26.9-52.6l26.3,52.6H134.4z"/>
		</g>
	</g>
</g>
</svg>